<svg width="20" height="20" viewBox="0 0 20 20" fill="none" xmlns="http://www.w3.org/2000/svg">
<path d="M9.99517 20C15.4761 20 20 15.4739 20 10C20 4.52611 15.4664 0 9.9855 0C4.51426 0 0 4.52611 0 10C0 15.4739 4.52392 20 9.99517 20ZM9.99517 18.0077C5.55824 18.0077 2.01063 14.4391 2.01063 10C2.01063 5.56093 5.55824 2.00193 9.9855 2.00193C14.4224 2.00193 17.9894 5.56093 17.999 10C18.0087 14.4391 14.4321 18.0077 9.99517 18.0077ZM7.61721 15.5803H12.3731C13.0594 15.5803 13.4751 15.2031 13.5041 14.5164L13.8328 7.147H14.5288C14.7898 7.147 14.9928 6.94391 15.0024 6.68279C15.0121 6.42166 14.7898 6.22824 14.5288 6.22824H12.3441V5.52224C12.3441 4.70986 11.7931 4.19729 10.8942 4.19729H9.06718C8.17786 4.19729 7.63654 4.70986 7.63654 5.52224V6.22824H5.43258C5.18125 6.22824 4.96858 6.42166 4.96858 6.68279C4.96858 6.94391 5.18125 7.147 5.43258 7.147H6.15756L6.48623 14.5164C6.51522 15.2031 6.92122 15.5803 7.61721 15.5803ZM8.67086 6.22824V5.56093C8.67086 5.31915 8.85452 5.15474 9.10585 5.15474H10.8458C11.1068 5.15474 11.2808 5.31915 11.2905 5.56093V6.22824H8.67086ZM8.36153 14.1103C8.15853 14.1103 8.00387 13.9652 8.00387 13.7718L7.81054 8.2882C7.81054 8.07543 7.94587 7.93037 8.17786 7.93037C8.38086 7.93037 8.52586 8.06576 8.52586 8.27853L8.70952 13.7621C8.70952 13.9652 8.57419 14.1103 8.36153 14.1103ZM9.97583 14.1006C9.76317 14.1006 9.61817 13.9652 9.61817 13.7621V8.27853C9.61817 8.06576 9.7535 7.93037 9.97583 7.93037C10.1982 7.93037 10.3432 8.06576 10.3432 8.27853V13.7621C10.3432 13.9652 10.1982 14.1006 9.97583 14.1006ZM11.5998 14.1103C11.3775 14.1103 11.2421 13.9652 11.2518 13.7621L11.4258 8.27853C11.4258 8.06576 11.5805 7.93037 11.7835 7.93037C12.0058 7.93037 12.1411 8.07543 12.1411 8.2882L11.9478 13.7718C11.9478 13.9652 11.7931 14.1103 11.5998 14.1103Z" fill="#FF3B30"/>
</svg>
