<svg width="20" height="20" viewBox="0 0 20 20" fill="none" xmlns="http://www.w3.org/2000/svg">
<path d="M9.99517 20C15.4761 20 20 15.4739 20 10C20 4.52611 15.4664 0 9.9855 0C4.51426 0 0 4.52611 0 10C0 15.4739 4.52392 20 9.99517 20ZM9.99517 18.0077C5.55824 18.0077 2.01063 14.4391 2.01063 10C2.01063 5.56093 5.55824 2.00193 9.9855 2.00193C14.4224 2.00193 17.9894 5.56093 17.999 10C18.0087 14.4391 14.4321 18.0077 9.99517 18.0077ZM13.7748 7.41779L14.4708 6.72147C14.7994 6.38298 14.8188 5.98646 14.5094 5.66731L14.2774 5.4352C13.9681 5.12573 13.5718 5.15474 13.2334 5.48356L12.5375 6.17988L13.7748 7.41779ZM7.01788 14.1586L13.1948 7.99807L11.9478 6.75048L5.79024 12.911L5.24891 14.1973C5.13291 14.4971 5.42291 14.7582 5.68391 14.6615L7.01788 14.1586Z" fill="#151528"/>
</svg>
