<svg width="14" height="20" viewBox="0 0 14 20" fill="none" xmlns="http://www.w3.org/2000/svg">
<path d="M11.4422 11.565H11.4328L12.2225 10.3332C12.8603 9.33844 13.1995 8.18167 13.2 7L11.4422 11.565ZM11.4422 11.565L6.99986 18.5148L5.60752 16.3372C4.67756 14.8826 3.56463 13.1415 2.55736 11.565H2.56532L1.77919 10.3343C1.16213 9.36836 0.8 8.22674 0.8 7C0.8 6.1858 0.960368 5.37958 1.27195 4.62736C1.58353 3.87514 2.04021 3.19166 2.61594 2.61594C3.19166 2.04021 3.87514 1.58353 4.62736 1.27195C5.37958 0.960368 6.1858 0.8 7 0.8C7.8142 0.8 8.62042 0.960368 9.37264 1.27195C10.1249 1.58353 10.8083 2.04021 11.3841 2.61594C11.9598 3.19166 12.4165 3.87514 12.7281 4.62736C13.0396 5.3795 13.2 6.18564 13.2 6.99974L11.4422 11.565ZM4.31299 9.68701C5.02563 10.3996 5.99218 10.8 7 10.8C8.00782 10.8 8.97437 10.3996 9.68701 9.68701C10.3996 8.97437 10.8 8.00782 10.8 7C10.8 5.99218 10.3996 5.02563 9.68701 4.31299C8.97437 3.60036 8.00782 3.2 7 3.2C5.99218 3.2 5.02563 3.60036 4.31299 4.31299C3.60036 5.02563 3.2 5.99218 3.2 7C3.2 8.00782 3.60036 8.97437 4.31299 9.68701Z" stroke="black" stroke-width="1.6"/>
</svg>
