<svg width="20" height="20" viewBox="0 0 20 20" fill="none" xmlns="http://www.w3.org/2000/svg">
<path d="M19.993 5.95001C19.9914 5.87781 19.9817 5.80602 19.964 5.73601C19.957 5.71101 19.943 5.68701 19.934 5.66201C19.913 5.60501 19.894 5.54901 19.864 5.49701C19.848 5.47001 19.826 5.44801 19.807 5.42201C19.775 5.37701 19.744 5.33101 19.705 5.29201C19.682 5.27001 19.652 5.25201 19.627 5.23101C19.588 5.19901 19.552 5.16401 19.507 5.13701C19.503 5.13401 19.498 5.13401 19.493 5.13101L19.485 5.12501L10.506 0.135008C10.3576 0.0527345 10.1908 0.0094833 10.0211 0.00930839C9.85147 0.00913349 9.68454 0.0520406 9.536 0.134008L0.515 5.12401C0.512 5.12701 0.509 5.13101 0.504 5.13401L0.494 5.13801C0.459 5.15801 0.433 5.18701 0.4 5.21101C0.364 5.23801 0.326 5.26201 0.294 5.29301C0.264 5.32401 0.241 5.36001 0.215 5.39501C0.188 5.43001 0.158 5.46101 0.136 5.49901C0.11 5.54201 0.0959999 5.59101 0.0769999 5.63801C0.0629999 5.67101 0.045 5.70201 0.036 5.73801C0.0187295 5.80675 0.00900528 5.87716 0.00699997 5.94801C0.00599997 5.96501 0 5.98001 0 5.99801V14C0 14.363 0.197 14.698 0.515 14.874L9.493 19.861L9.494 19.862L9.496 19.863L9.516 19.874C9.559 19.898 9.606 19.911 9.651 19.928C9.683 19.941 9.714 19.958 9.748 19.967C9.91395 20.0098 10.088 20.0098 10.254 19.967C10.287 19.958 10.318 19.941 10.351 19.928C10.396 19.911 10.443 19.899 10.486 19.874L10.506 19.863L10.508 19.862L10.509 19.861L19.487 14.874C19.803 14.698 20 14.363 20 14V5.99801C20 5.98101 19.994 5.96701 19.993 5.95001ZM9.972 9.87201L3.058 6.00501L5.82 4.47701L12.654 8.38201L9.972 9.87201ZM10.02 2.15301L16.941 6.00001L14.697 7.24701L7.867 3.34401L10.02 2.15301ZM2 7.70501L9 11.621V17.301L2 13.411V7.70501ZM11 17.301L11.002 11.622L14 9.94401V13L16 12V8.82501L18 7.70601V13.411L11 17.301Z" fill="#058BEC"/>
</svg>
